<svg xmlns="http://www.w3.org/2000/svg" viewBox="0 0 33 33" shape-rendering="crispEdges"><path fill="#ffffff" d="M0 0h33v33H0z"/><path stroke="#000000" d="M0 0.5h7m1 0h1m3 0h2m1 0h1m1 0h1m2 0h3m1 0h1m1 0h7M0 1.5h1m5 0h1m5 0h1m2 0h1m5 0h1m2 0h1m1 0h1m5 0h1M0 2.5h1m1 0h3m1 0h1m1 0h2m1 0h3m1 0h1m1 0h1m1 0h2m1 0h1m3 0h1m1 0h3m1 0h1M0 3.5h1m1 0h3m1 0h1m3 0h3m6 0h1m2 0h3m1 0h1m1 0h3m1 0h1M0 4.5h1m1 0h3m1 0h1m2 0h1m1 0h2m2 0h1m1 0h1m1 0h1m3 0h1m2 0h1m1 0h3m1 0h1M0 5.5h1m5 0h1m1 0h2m1 0h5m1 0h3m1 0h1m1 0h1m2 0h1m5 0h1M0 6.5h7m1 0h1m1 0h1m1 0h1m1 0h1m1 0h1m1 0h1m1 0h1m1 0h1m1 0h1m1 0h7M12 7.5h2m1 0h2m2 0h2m1 0h1M0 8.5h1m1 0h1m3 0h2m2 0h2m1 0h1m6 0h5m2 0h1m2 0h1m1 0h1M1 9.5h2m1 0h2m2 0h1m3 0h3m1 0h3m1 0h4m1 0h3m1 0h1m2 0h1M0 10.5h5m1 0h2m8 0h1m3 0h2m1 0h1m1 0h2m2 0h2m1 0h1M0 11.5h2m3 0h1m1 0h1m1 0h2m2 0h1m1 0h1m1 0h1m1 0h1m1 0h1m2 0h1m2 0h3m2 0h1M0 12.5h1m4 0h3m1 0h2m2 0h1m3 0h1m3 0h1m1 0h1m2 0h1m1 0h1m2 0h1M0 13.5h1m1 0h3m3 0h4m1 0h1m3 0h1m6 0h2m1 0h3m1 0h2M1 14.5h3m2 0h1m5 0h1m2 0h1m3 0h1m1 0h2m1 0h1m1 0h2m1 0h2m1 0h1M0 15.5h3m2 0h1m3 0h1m1 0h1m1 0h1m3 0h1m5 0h5m1 0h1M1 16.5h1m1 0h1m2 0h1m3 0h2m1 0h1m1 0h1m3 0h2m1 0h3m1 0h2m1 0h1m1 0h1M1 17.5h1m3 0h1m1 0h1m1 0h2m1 0h2m1 0h2m3 0h2m1 0h2m1 0h1m2 0h1M0 18.5h4m1 0h4m2 0h1m1 0h1m1 0h6m1 0h2m1 0h1m3 0h2m1 0h1M0 19.5h3m6 0h1m1 0h1m1 0h2m3 0h1m2 0h1m2 0h1m1 0h4M1 20.5h3m1 0h2m1 0h1m2 0h2m1 0h1m1 0h3m1 0h1m3 0h1m2 0h1M4 21.5h1m4 0h6m1 0h3m1 0h2m2 0h2m1 0h2m3 0h1M0 22.5h2m1 0h2m1 0h1m3 0h1m5 0h3m1 0h2m2 0h4m1 0h2m1 0h1M2 23.5h2m1 0h1m1 0h2m1 0h3m1 0h4m1 0h3m1 0h1m1 0h1m3 0h2m1 0h1M0 24.5h2m4 0h1m1 0h1m2 0h1m1 0h1m2 0h2m3 0h9M8 25.5h1m1 0h8m6 0h1m3 0h1m2 0h1M0 26.5h7m1 0h1m1 0h4m2 0h1m2 0h3m2 0h1m1 0h1m1 0h3M0 27.5h1m5 0h1m3 0h1m2 0h1m3 0h1m1 0h1m1 0h1m1 0h2m3 0h1m3 0h1M0 28.5h1m1 0h3m1 0h1m2 0h1m1 0h1m3 0h1m1 0h1m2 0h1m2 0h6m2 0h2M0 29.5h1m1 0h3m1 0h1m2 0h6m2 0h1m3 0h2m1 0h1m3 0h3M0 30.5h1m1 0h3m1 0h1m1 0h2m5 0h1m2 0h4m3 0h1m1 0h3m1 0h2M0 31.5h1m5 0h1m2 0h2m1 0h3m2 0h1m1 0h1m1 0h2m3 0h1m1 0h3M0 32.5h7m1 0h3m3 0h2m3 0h4m2 0h1m1 0h1m2 0h1m1 0h1"/></svg>